<?xml version="1.0" encoding="utf-8"?>
<svg width="2000" height="800" viewBox="0 0 2000 800" xmlns="http://www.w3.org/2000/svg">
  <rect width="2000" height="800" fill="#f0f2f5" x="0.172" y="-0.164"/>
  <rect id="corridor-main" data-type="corridor" data-name="Ana Koridor" x="200" y="180" width="1450.58" height="90" fill="#ffffff"/>
  <rect id="corridor-left" data-type="corridor" data-name="Sol Koridor" x="200" y="270" width="90" height="430" fill="#ffffff"/>
  <g stroke="#2c3e50" stroke-width="4" fill="none" transform="matrix(0.936001, -0.000008, 0, 1, 12.799901, 0.00896)">
    <line x1="200" y1="180" x2="1750" y2="180"/>
    <line x1="290" y1="270" x2="1750" y2="270"/>
    <line x1="200" y1="180" x2="200" y2="700"/>
    <line x1="290" y1="270" x2="290" y2="700"/>
  </g>
  <text x="900" y="235" text-anchor="middle" font-size="22" fill="#bdbdbd" font-weight="bold" letter-spacing="10">KORİDOR</text>
  <text x="245" y="500" text-anchor="middle" font-size="16" fill="#bdbdbd" font-weight="bold" letter-spacing="3" transform="rotate(-90, 245, 500)">KORİDOR</text>
  <g id="room-161" data-room-id="161" data-room-name="TTO Ofisi" data-type="office">
    <rect x="200" y="40" width="100" height="140" fill="#c8e6c9" stroke="#388e3c" stroke-width="2"/>
    <text x="250" y="100" text-anchor="middle" font-size="14" fill="#1b5e20" font-weight="bold">TTO</text>
    <text x="250" y="118" text-anchor="middle" font-size="12" fill="#1b5e20">Ofisi</text>
    <text x="250" y="140" text-anchor="middle" font-size="11" fill="#1b5e20">161</text>
    <rect x="230" y="165" width="40" height="20" fill="#fff" stroke="#b0bec5" stroke-width="1"/>
  </g>
  <g id="room-160" data-room-id="160" data-room-name="Derslik" data-type="classroom">
    <rect x="310" y="40" width="120" height="140" fill="#cfd8dc" stroke="#546e7a" stroke-width="2"/>
    <text x="370" y="100" text-anchor="middle" font-size="14" fill="#37474f" font-weight="bold">DERSLİK</text>
    <text x="370" y="120" text-anchor="middle" font-size="12" fill="#37474f">160</text>
    <rect x="350" y="165" width="40" height="20" fill="#fff" stroke="#b0bec5" stroke-width="1"/>
  </g>
  <g id="room-159" data-room-id="159" data-room-name="Derslik" data-type="classroom">
    <rect x="440" y="40" width="120" height="140" fill="#cfd8dc" stroke="#546e7a" stroke-width="2"/>
    <text x="500" y="100" text-anchor="middle" font-size="14" fill="#37474f" font-weight="bold">DERSLİK</text>
    <text x="500" y="120" text-anchor="middle" font-size="12" fill="#37474f">159</text>
    <rect x="480" y="165" width="40" height="20" fill="#fff" stroke="#b0bec5" stroke-width="1"/>
  </g>
  <g id="room-158" data-room-id="158" data-room-name="Derslik" data-type="classroom">
    <rect x="570" y="40" width="120" height="140" fill="#cfd8dc" stroke="#546e7a" stroke-width="2"/>
    <text x="630" y="100" text-anchor="middle" font-size="14" fill="#37474f" font-weight="bold">DERSLİK</text>
    <text x="630" y="120" text-anchor="middle" font-size="12" fill="#37474f">158</text>
    <rect x="610" y="165" width="40" height="20" fill="#fff" stroke="#b0bec5" stroke-width="1"/>
  </g>
  <g id="room-157" data-room-id="157" data-room-name="Derslik" data-type="classroom">
    <rect x="700" y="40" width="120" height="140" fill="#cfd8dc" stroke="#546e7a" stroke-width="2"/>
    <text x="760" y="100" text-anchor="middle" font-size="14" fill="#37474f" font-weight="bold">DERSLİK</text>
    <text x="760" y="120" text-anchor="middle" font-size="12" fill="#37474f">157</text>
    <rect x="740" y="165" width="40" height="20" fill="#fff" stroke="#b0bec5" stroke-width="1"/>
  </g>
  <g id="stairs-1" data-type="stairs" data-name="Merdiven 1">
    <rect x="830" y="40" width="80" height="140" fill="#e0e0e0" stroke="#9e9e9e" stroke-width="2"/>
    <text x="870" y="100" text-anchor="middle" font-size="10" fill="#666" font-weight="bold">MERDİVEN</text>
    <g stroke="#757575" stroke-width="2">
      <line x1="840" y1="55" x2="900" y2="55"/>
      <line x1="840" y1="70" x2="900" y2="70"/>
      <line x1="840" y1="85" x2="900" y2="85"/>
      <line x1="840" y1="115" x2="900" y2="115"/>
      <line x1="840" y1="130" x2="900" y2="130"/>
      <line x1="840" y1="145" x2="900" y2="145"/>
      <line x1="840" y1="160" x2="900" y2="160"/>
    </g>
  </g>
  <g id="room-156" data-room-id="156" data-room-name="Kimya Lab" data-type="lab">
    <rect x="920" y="40" width="160" height="140" fill="#b2dfdb" stroke="#00897b" stroke-width="2"/>
    <text x="1000" y="95" text-anchor="middle" font-size="14" fill="#00695c" font-weight="bold">KİMYA LAB.</text>
    <text x="1000" y="115" text-anchor="middle" font-size="12" fill="#00695c">156</text>
    <rect x="980" y="165" width="40" height="20" fill="#fff" stroke="#b0bec5" stroke-width="1"/>
  </g>
  <g id="room-155" data-room-id="155" data-room-name="Modelleme Opt. Lab" data-type="lab">
    <rect x="1090" y="40" width="140" height="140" fill="#b2dfdb" stroke="#00897b" stroke-width="2"/>
    <text x="1160" y="85" text-anchor="middle" font-size="12" fill="#00695c" font-weight="bold">MODELLEME</text>
    <text x="1160" y="100" text-anchor="middle" font-size="12" fill="#00695c" font-weight="bold">OPT. LAB</text>
    <text x="1160" y="120" text-anchor="middle" font-size="11" fill="#00695c">155</text>
    <rect x="1140" y="165" width="40" height="20" fill="#fff" stroke="#b0bec5" stroke-width="1"/>
  </g>
  <g id="wc-1" data-room-id="WC1" data-room-name="WC" data-type="wc">
    <rect x="1240" y="40" width="70" height="140" fill="#eeeeee" stroke="#bdbdbd" stroke-width="2"/>
    <text x="1275" y="110" text-anchor="middle" font-size="16" fill="#616161" font-weight="bold">WC</text>
  </g>
  <g id="room-151" data-room-id="151" data-room-name="Maket Atölyesi" data-type="lab">
    <rect x="1320" y="40" width="130" height="140" fill="#b2dfdb" stroke="#00897b" stroke-width="2"/>
    <text x="1385" y="85" text-anchor="middle" font-size="12" fill="#00695c" font-weight="bold">MAKET</text>
    <text x="1385" y="102" text-anchor="middle" font-size="12" fill="#00695c" font-weight="bold">ATÖLYESİ</text>
    <text x="1385" y="122" text-anchor="middle" font-size="11" fill="#00695c">151</text>
    <rect x="1365" y="165" width="40" height="20" fill="#fff" stroke="#b0bec5" stroke-width="1"/>
  </g>
  <g id="room-131" data-room-id="131" data-room-name="Temel Elektronik Lab" data-type="lab">
    <rect x="1460" y="40" width="160" height="140" fill="#80cbc4" stroke="#00695c" stroke-width="2"/>
    <text x="1540" y="85" text-anchor="middle" font-size="12" fill="#004d40" font-weight="bold">TEMEL ELEK.</text>
    <text x="1540" y="102" text-anchor="middle" font-size="12" fill="#004d40" font-weight="bold">LAB.</text>
    <text x="1540" y="122" text-anchor="middle" font-size="11" fill="#004d40">131-1</text>
    <rect x="1520" y="165" width="40" height="20" fill="#fff" stroke="#b0bec5" stroke-width="1"/>
  </g>
  <g id="room-141" data-room-id="141" data-room-name="Areli İletişim USAM" data-type="office">
    <rect x="300" y="270" width="120" height="150" fill="#c8e6c9" stroke="#388e3c" stroke-width="2"/>
    <text x="360" y="320" text-anchor="middle" font-size="11" fill="#1b5e20" font-weight="bold">ARELİ</text>
    <text x="360" y="335" text-anchor="middle" font-size="11" fill="#1b5e20" font-weight="bold">İLETİŞİM</text>
    <text x="360" y="350" text-anchor="middle" font-size="11" fill="#1b5e20" font-weight="bold">USAM</text>
    <text x="360" y="370" text-anchor="middle" font-size="10" fill="#1b5e20">141-1</text>
    <rect x="340" y="270" width="40" height="15" fill="#fff" stroke="#b0bec5" stroke-width="1"/>
  </g>
  <g id="room-142" data-room-id="142" data-room-name="Derslik" data-type="classroom">
    <rect x="430" y="270" width="120" height="150" fill="#cfd8dc" stroke="#546e7a" stroke-width="2"/>
    <text x="490" y="335" text-anchor="middle" font-size="14" fill="#37474f" font-weight="bold">DERSLİK</text>
    <text x="490" y="355" text-anchor="middle" font-size="12" fill="#37474f">142</text>
    <rect x="470" y="270" width="40" height="15" fill="#fff" stroke="#b0bec5" stroke-width="1"/>
  </g>
  <g id="room-143" data-room-id="143" data-room-name="Derslik" data-type="classroom">
    <rect x="560" y="270" width="120" height="150" fill="#cfd8dc" stroke="#546e7a" stroke-width="2"/>
    <text x="620" y="335" text-anchor="middle" font-size="14" fill="#37474f" font-weight="bold">DERSLİK</text>
    <text x="620" y="355" text-anchor="middle" font-size="12" fill="#37474f">143</text>
    <rect x="600" y="270" width="40" height="15" fill="#fff" stroke="#b0bec5" stroke-width="1"/>
  </g>
  <g id="room-144" data-room-id="144" data-room-name="Derslik" data-type="classroom">
    <rect x="690" y="270" width="120" height="150" fill="#cfd8dc" stroke="#546e7a" stroke-width="2"/>
    <text x="750" y="335" text-anchor="middle" font-size="14" fill="#37474f" font-weight="bold">DERSLİK</text>
    <text x="750" y="355" text-anchor="middle" font-size="12" fill="#37474f">144</text>
    <rect x="730" y="270" width="40" height="15" fill="#fff" stroke="#b0bec5" stroke-width="1"/>
  </g>
  <g id="room-145" data-room-id="145" data-room-name="Müh. Öğr. Çal. Ofisi" data-type="office">
    <rect x="820" y="270" width="100" height="150" fill="#cfd8dc" stroke="#546e7a" stroke-width="2"/>
    <text x="870" y="325" text-anchor="middle" font-size="10" fill="#263238" font-weight="bold">MÜH. ÖĞR.</text>
    <text x="870" y="340" text-anchor="middle" font-size="10" fill="#263238" font-weight="bold">ÇAL. OFİSİ</text>
    <text x="870" y="360" text-anchor="middle" font-size="10" fill="#263238">145</text>
    <rect x="850" y="270" width="40" height="15" fill="#fff" stroke="#b0bec5" stroke-width="1"/>
  </g>
  <g id="room-146" data-room-id="146" data-room-name="Fizik Lab" data-type="lab">
    <rect x="930" y="270" width="160" height="150" fill="#b2dfdb" stroke="#00897b" stroke-width="2"/>
    <text x="1010" y="335" text-anchor="middle" font-size="14" fill="#00695c" font-weight="bold">FİZİK LAB.</text>
    <text x="1010" y="360" text-anchor="middle" font-size="12" fill="#00695c">146</text>
    <rect x="990" y="270" width="40" height="15" fill="#fff" stroke="#b0bec5" stroke-width="1"/>
  </g>
  <g id="room-147" data-room-id="147" data-room-name="Büyük Veri ve IoT Lab" data-type="lab">
    <rect x="1100" y="270" width="150" height="150" fill="#b2dfdb" stroke="#00897b" stroke-width="2"/>
    <text x="1175" y="325" text-anchor="middle" font-size="11" fill="#00695c" font-weight="bold">BÜYÜK VERİ</text>
    <text x="1175" y="342" text-anchor="middle" font-size="11" fill="#00695c" font-weight="bold">VE IOT LAB</text>
    <text x="1175" y="365" text-anchor="middle" font-size="11" fill="#00695c">147</text>
    <rect x="1155" y="270" width="40" height="15" fill="#fff" stroke="#b0bec5" stroke-width="1"/>
  </g>
  <g id="room-148" data-room-id="148" data-room-name="Araştırma Görev Girişi" data-type="office">
    <rect x="1260" y="270" width="100" height="150" fill="#cfd8dc" stroke="#546e7a" stroke-width="2"/>
    <text x="1310" y="320" text-anchor="middle" font-size="10" fill="#263238" font-weight="bold">ARAŞTIRMA</text>
    <text x="1310" y="335" text-anchor="middle" font-size="10" fill="#263238" font-weight="bold">GÖREV</text>
    <text x="1310" y="350" text-anchor="middle" font-size="10" fill="#263238" font-weight="bold">GİRİŞİ</text>
    <text x="1310" y="370" text-anchor="middle" font-size="10" fill="#263238">148</text>
    <rect x="1290" y="270" width="40" height="15" fill="#fff" stroke="#b0bec5" stroke-width="1"/>
  </g>
  <g id="room-149" data-room-id="149" data-room-name="Öğrenci Proje Ofisi" data-type="lab">
    <rect x="1370" y="270" width="120" height="150" fill="#b2dfdb" stroke="#00897b" stroke-width="2"/>
    <text x="1430" y="325" text-anchor="middle" font-size="11" fill="#00695c" font-weight="bold">ÖĞRENCİ</text>
    <text x="1430" y="342" text-anchor="middle" font-size="11" fill="#00695c" font-weight="bold">PROJ. OFİSİ</text>
    <text x="1430" y="365" text-anchor="middle" font-size="10" fill="#00695c">149</text>
    <rect x="1410" y="270" width="40" height="15" fill="#fff" stroke="#b0bec5" stroke-width="1"/>
  </g>
  <g id="room-150" data-room-id="150" data-room-name="Kalibrasyon Lab" data-type="lab">
    <rect x="1500" y="270" width="150" height="150" fill="#b2dfdb" stroke="#00897b" stroke-width="2"/>
    <text x="1575" y="315" text-anchor="middle" font-size="10" fill="#00695c" font-weight="bold">KALİBRASYON</text>
    <text x="1575" y="330" text-anchor="middle" font-size="10" fill="#00695c" font-weight="bold">VE</text>
    <text x="1575" y="345" text-anchor="middle" font-size="10" fill="#00695c" font-weight="bold">UYGULAMALARI</text>
    <text x="1575" y="360" text-anchor="middle" font-size="10" fill="#00695c" font-weight="bold">LAB</text>
    <text x="1575" y="380" text-anchor="middle" font-size="10" fill="#00695c">150</text>
    <rect x="1555" y="270" width="40" height="15" fill="#fff" stroke="#b0bec5" stroke-width="1"/>
  </g>
  <g id="room-yemekhane" data-room-id="YEMEKHANE" data-room-name="Yemekhane" data-type="cafeteria">
    <rect x="20" y="190" width="170" height="80" fill="#dcedc8" stroke="#689f38" stroke-width="2"/>
    <text x="105" y="235" text-anchor="middle" font-size="16" fill="#33691e" font-weight="bold">YEMEKHANE</text>
    <rect x="175" y="210" width="30" height="40" fill="#fff" stroke="#b0bec5" stroke-width="1"/>
  </g>
  <g id="room-wc-bay" data-room-id="WC-BAY" data-room-name="WC Bay" data-type="wc">
    <rect x="20" y="280" width="170" height="100" fill="#ffe0b2" stroke="#f57c00" stroke-width="2"/>
    <text x="105" y="335" text-anchor="middle" font-size="16" fill="#e65100" font-weight="bold">WC BAY</text>
    <rect x="175" y="310" width="30" height="40" fill="#fff" stroke="#b0bec5" stroke-width="1"/>
  </g>
  <g id="stairs-left" data-type="stairs" data-name="Merdiven Sol">
    <rect x="20" y="390" width="170" height="90" fill="#e0e0e0" stroke="#9e9e9e" stroke-width="2"/>
    <text x="105" y="440" text-anchor="middle" font-size="12" fill="#616161" font-weight="bold">MERDİVEN 2</text>
    <g stroke="#757575" stroke-width="2">
      <line x1="40" y1="405" x2="170" y2="405"/>
      <line x1="40" y1="420" x2="170" y2="420"/>
      <line x1="40" y1="450" x2="170" y2="450"/>
      <line x1="40" y1="465" x2="170" y2="465"/>
    </g>
  </g>
  <g id="room-139" data-room-id="139" data-room-name="Derslik" data-type="classroom">
    <rect x="20" y="490" width="170" height="100" fill="#f8bbd0" stroke="#c2185b" stroke-width="2"/>
    <text x="105" y="545" text-anchor="middle" font-size="14" fill="#880e4f" font-weight="bold">DERSLİK 139</text>
    <rect x="175" y="520" width="30" height="40" fill="#fff" stroke="#b0bec5" stroke-width="1"/>
  </g>
  <g id="room-120" data-room-id="120" data-room-name="Derslik" data-type="classroom">
    <rect x="300" y="430" width="120" height="140" fill="#cfd8dc" stroke="#546e7a" stroke-width="2"/>
    <text x="360" y="495" text-anchor="middle" font-size="14" fill="#37474f" font-weight="bold">DERSLİK</text>
    <text x="360" y="515" text-anchor="middle" font-size="12" fill="#37474f">120</text>
    <rect x="280" y="480" width="25" height="40" fill="#fff" stroke="#b0bec5" stroke-width="1"/>
  </g>
  <g id="entrance" data-type="entrance">
    <rect x="200" y="680" width="90" height="30" fill="#e3f2fd" stroke="#2196f3" stroke-width="2"/>
    <text x="245" y="700" text-anchor="middle" font-size="12" fill="#1565c0" font-weight="bold">GİRİŞ</text>
    <path d="M 205 710 L 215 680 M 225 710 L 235 680 M 245 710 L 255 680 M 265 710 L 275 680" stroke="#2196f3" stroke-width="1" opacity="0.5"/>
  </g>
  <g id="beacon-B1" data-beacon-id="B1" data-x="1430" data-y="255" data-nearest-room="149">
    <rect x="1418" y="243" width="25" height="25" fill="#d8d8d8" stroke="#000000" stroke-width="1"/>
    <text x="1430" y="261" text-anchor="middle" font-family="Arial, sans-serif" font-size="14" font-weight="bold" fill="#333">B1</text>
  </g>
  <g id="beacon-B2" data-beacon-id="B2" data-x="1310" data-y="255" data-nearest-room="148">
    <rect x="1298" y="243" width="25" height="25" fill="#d8d8d8" stroke="#000000" stroke-width="1"/>
    <text x="1310" y="261" text-anchor="middle" font-family="Arial, sans-serif" font-size="14" font-weight="bold" fill="#333">B2</text>
  </g>
  <g id="beacon-B3" data-beacon-id="B3" data-x="1175" data-y="255" data-nearest-room="147">
    <rect x="1163" y="243" width="25" height="25" fill="#d8d8d8" stroke="#000000" stroke-width="1"/>
    <text x="1175" y="261" text-anchor="middle" font-family="Arial, sans-serif" font-size="14" font-weight="bold" fill="#333">B3</text>
  </g>
  <g id="beacon-B4" data-beacon-id="B4" data-x="1160" data-y="195" data-nearest-room="155">
    <rect x="1148" y="183" width="25" height="25" fill="#d8d8d8" stroke="#000000" stroke-width="1"/>
    <text x="1160" y="201" text-anchor="middle" font-family="Arial, sans-serif" font-size="14" font-weight="bold" fill="#333">B4</text>
  </g>
  <g id="beacon-B5" data-beacon-id="B5" data-x="1010" data-y="255" data-nearest-room="146">
    <rect x="998" y="243" width="25" height="25" fill="#d8d8d8" stroke="#000000" stroke-width="1"/>
    <text x="1010" y="261" text-anchor="middle" font-family="Arial, sans-serif" font-size="14" font-weight="bold" fill="#333">B5</text>
  </g>
  <g id="beacon-B6" data-beacon-id="B6" data-x="1000" data-y="195" data-nearest-room="156">
    <rect x="988" y="183" width="25" height="25" fill="#d8d8d8" stroke="#000000" stroke-width="1"/>
    <text x="1000" y="201" text-anchor="middle" font-family="Arial, sans-serif" font-size="14" font-weight="bold" fill="#333">B6</text>
  </g>
  <g id="beacon-B7" data-beacon-id="B7" data-x="870" data-y="255" data-nearest-room="145">
    <rect x="858" y="243" width="25" height="25" fill="#d8d8d8" stroke="#000000" stroke-width="1"/>
    <text x="870" y="261" text-anchor="middle" font-family="Arial, sans-serif" font-size="14" font-weight="bold" fill="#333">B7</text>
  </g>
  <g id="beacon-B8" data-beacon-id="B8" data-x="490" data-y="255" data-nearest-room="142">
    <rect x="478" y="243" width="25" height="25" fill="#d8d8d8" stroke="#000000" stroke-width="1"/>
    <text x="490" y="261" text-anchor="middle" font-family="Arial, sans-serif" font-size="14" font-weight="bold" fill="#333">B8</text>
  </g>
  <g id="beacon-B9" data-beacon-id="B9" data-x="630" data-y="195" data-nearest-room="158">
    <rect x="618" y="183" width="25" height="25" fill="#d8d8d8" stroke="#000000" stroke-width="1"/>
    <text x="630" y="201" text-anchor="middle" font-family="Arial, sans-serif" font-size="14" font-weight="bold" fill="#333">B9</text>
  </g>
  <g id="beacon-B10" data-beacon-id="B10" data-x="370" data-y="195" data-nearest-room="160">
    <rect x="358" y="183" width="25" height="25" fill="#d8d8d8" stroke="#000000" stroke-width="1"/>
    <text x="370" y="201" text-anchor="middle" font-family="Arial, sans-serif" font-size="14" font-weight="bold" fill="#333">B10</text>
  </g>
  <g id="beacon-B11" data-beacon-id="B11" data-x="360" data-y="255" data-nearest-room="141">
    <rect x="348" y="243" width="25" height="25" fill="#d8d8d8" stroke="#000000" stroke-width="1"/>
    <text x="360" y="261" text-anchor="middle" font-family="Arial, sans-serif" font-size="14" font-weight="bold" fill="#333">B11</text>
  </g>
  <g id="beacon-B12" data-beacon-id="B12" data-x="250" data-y="195" data-nearest-room="161" transform="matrix(1, 0, 0, 1, 0, -3.921107)">
    <rect x="238" y="183" width="25" height="25" fill="#d8d8d8" stroke="#000000" stroke-width="1"/>
    <text x="250" y="201" text-anchor="middle" font-family="Arial, sans-serif" font-size="14" font-weight="bold" fill="#333">B12</text>
  </g>
  <g id="beacon-B13" data-beacon-id="B13" data-x="230" data-y="280" data-nearest-room="WC-BAY" transform="matrix(1, 0, 0, 1, -31.798566, -48.151763)">
    <rect x="218" y="268" width="25" height="25" fill="#d8d8d8" stroke="#000000" stroke-width="1"/>
    <text x="230" y="286" text-anchor="middle" font-family="Arial, sans-serif" font-size="14" font-weight="bold" fill="#333">B13</text>
  </g>
  <g id="beacon-B14" data-beacon-id="B14" data-x="260" data-y="500" data-nearest-room="120" transform="matrix(1, 0, 0, 1, -53.603294, 39.066505)">
    <rect x="248" y="488" width="25" height="25" fill="#d8d8d8" stroke="#000000" stroke-width="1"/>
    <text x="260" y="506" text-anchor="middle" font-family="Arial, sans-serif" font-size="14" font-weight="bold" fill="#333">B14</text>
  </g>
  <g id="beacon-B15" data-beacon-id="B15" data-x="230" data-y="620" data-nearest-room="entrance" transform="matrix(1, 0, 0, 1, 48.360805, -121.554724)">
    <rect x="218" y="608" width="25" height="25" fill="#d8d8d8" stroke="#000000" stroke-width="1"/>
    <text x="230" y="626" text-anchor="middle" font-family="Arial, sans-serif" font-size="14" font-weight="bold" fill="#333">B15</text>
  </g>
  <g id="scale-bar" transform="translate(1700, 750)">
    <line x1="0" y1="0" x2="200" y2="0" stroke="#333" stroke-width="3"/>
    <line x1="0" y1="-8" x2="0" y2="8" stroke="#333" stroke-width="3"/>
    <line x1="100" y1="-5" x2="100" y2="5" stroke="#333" stroke-width="2"/>
    <line x1="200" y1="-8" x2="200" y2="8" stroke="#333" stroke-width="3"/>
    <text x="0" y="25" text-anchor="middle" font-size="12" fill="#333">0</text>
    <text x="100" y="25" text-anchor="middle" font-size="12" fill="#333">10m</text>
    <text x="200" y="25" text-anchor="middle" font-size="12" fill="#333">20m</text>
  </g>
  <g id="compass" transform="translate(1850, 100)">
    <circle cx="0" cy="0" r="35" fill="white" stroke="#333" stroke-width="2"/>
    <polygon points="0,-25 -8,5 0,-5 8,5" fill="#e53935"/>
    <polygon points="0,25 -8,-5 0,5 8,-5" fill="#333"/>
    <text x="0" y="-38" text-anchor="middle" font-size="14" font-weight="bold" fill="#333">K</text>
    <text x="0" y="50" text-anchor="middle" font-size="12" fill="#666">G</text>
    <text x="-42" y="5" text-anchor="middle" font-size="12" fill="#666">B</text>
    <text x="42" y="5" text-anchor="middle" font-size="12" fill="#666">D</text>
  </g>
  <g id="legend" transform="translate(1650, 500)">
    <rect x="0" y="0" width="180" height="200" fill="white" stroke="#333" stroke-width="1" rx="5"/>
    <text x="90" y="25" text-anchor="middle" font-size="14" font-weight="bold" fill="#333">LEJANT</text>
    <rect x="15" y="40" width="25" height="18" fill="#cfd8dc" stroke="#546e7a" stroke-width="2"/>
    <text x="50" y="54" font-size="11" fill="#333">Derslik</text>
    <rect x="15" y="65" width="25" height="18" fill="#b2dfdb" stroke="#00897b" stroke-width="2"/>
    <text x="50" y="79" font-size="11" fill="#333">Laboratuvar</text>
    <rect x="15" y="90" width="25" height="18" fill="#c8e6c9" stroke="#388e3c" stroke-width="2"/>
    <text x="50" y="104" font-size="11" fill="#333">Ofis</text>
    <rect x="15" y="115" width="25" height="18" fill="#ffe0b2" stroke="#f57c00" stroke-width="2"/>
    <text x="50" y="129" font-size="11" fill="#333">WC</text>
    <rect x="15" y="140" width="25" height="18" fill="#e0e0e0" stroke="#9e9e9e" stroke-width="2"/>
    <text x="50" y="154" font-size="11" fill="#333">Merdiven</text>
    <rect x="15" y="165" width="20" height="20" fill="#d8d8d8" stroke="#000000" stroke-width="1"/>
    <text x="50" y="180" font-size="11" fill="#333">Beacon</text>
  </g>
</svg>
